<svg xmlns="http://www.w3.org/2000/svg" viewBox="0 0 1400 700" role="img" aria-labelledby="title desc">
<title id="title">Conceptual learning-rate schedules: constant, step decay, cosine, and warmup plus cosine</title><desc id="desc">Conceptual learning-rate schedules: constant, step decay, cosine, and warmup plus cosine</desc>
<defs><marker id="arrow" viewBox="0 0 10 10" refX="8" refY="5" markerWidth="7" markerHeight="7" orient="auto-start-reverse"><path d="M0 0L10 5L0 10Z" fill="#081B33"/></marker><style>text{font-family:Arial,Helvetica,sans-serif;fill:#081B33}.t{font-size:28px;font-weight:700}.h{font-size:22px;font-weight:700}.b{font-size:18px}.s{font-size:15px;fill:#5B6678}.axis{stroke:#5B6678;stroke-width:2}.grid{stroke:#D8DEE8;stroke-width:1}.flow{stroke:#081B33;stroke-width:3;fill:none;marker-end:url(#arrow)}.dash{stroke-dasharray:9 7}.panel{fill:#F4F7FA;stroke:#AAB3C0;stroke-width:2}.module{fill:#E8EEF8;stroke:#263F8F;stroke-width:2}.accent{fill:#DDF4F8;stroke:#238BA8;stroke-width:2}</style></defs>
<rect width="1400" height="700" fill="#FFFFFF"/>
<text x="700" y="48" class="t" text-anchor="middle">Learning Rate Schedules</text>
<line x1="95" y1="230.0" x2="1305" y2="230.0" class="grid"/>
<line x1="95" y1="350.0" x2="1305" y2="350.0" class="grid"/>
<line x1="95" y1="470.0" x2="1305" y2="470.0" class="grid"/>
<line x1="95" y1="590" x2="1305" y2="590" class="axis"/>
<line x1="95" y1="110" x2="95" y2="590" class="axis"/>
<text x="700.0" y="628" class="s" text-anchor="middle">epoch</text>
<text x="47" y="350.0" class="s" text-anchor="middle">learning rate</text>
<path d="M110 200 L1290 200" fill="none" stroke="#081B33" stroke-width="4" stroke-linecap="round" stroke-linejoin="round" />
<path d="M110 180 L450 180 L450 310 L810 310 L810 440 L1290 440" fill="none" stroke="#263F8F" stroke-width="4" stroke-linecap="round" stroke-linejoin="round" />
<path d="M110.0 180.0 L124.8 180.1 L139.5 180.5 L154.2 181.0 L169.0 181.8 L183.8 182.9 L198.5 184.1 L213.2 185.6 L228.0 187.3 L242.8 189.3 L257.5 191.4 L272.2 193.8 L287.0 196.3 L301.8 199.1 L316.5 202.1 L331.2 205.3 L346.0 208.6 L360.8 212.2 L375.5 215.9 L390.2 219.9 L405.0 223.9 L419.8 228.2 L434.5 232.6 L449.2 237.1 L464.0 241.8 L478.8 246.7 L493.5 251.6 L508.2 256.7 L523.0 261.9 L537.8 267.2 L552.5 272.6 L567.2 278.1 L582.0 283.6 L596.8 289.3 L611.5 295.0 L626.2 300.7 L641.0 306.5 L655.8 312.4 L670.5 318.2 L685.2 324.1 L700.0 330.0 L714.8 335.9 L729.5 341.8 L744.2 347.6 L759.0 353.5 L773.8 359.3 L788.5 365.0 L803.2 370.7 L818.0 376.4 L832.8 381.9 L847.5 387.4 L862.2 392.8 L877.0 398.1 L891.8 403.3 L906.5 408.4 L921.2 413.3 L936.0 418.2 L950.8 422.9 L965.5 427.4 L980.2 431.8 L995.0 436.1 L1009.8 440.1 L1024.5 444.1 L1039.2 447.8 L1054.0 451.4 L1068.8 454.7 L1083.5 457.9 L1098.2 460.9 L1113.0 463.7 L1127.8 466.2 L1142.5 468.6 L1157.2 470.7 L1172.0 472.7 L1186.8 474.4 L1201.5 475.9 L1216.2 477.1 L1231.0 478.2 L1245.8 479.0 L1260.5 479.5 L1275.2 479.9 L1290.0 480.0" fill="none" stroke="#3157D5" stroke-width="5" stroke-linecap="round" stroke-linejoin="round" />
<path d="M110.0 480.0 L124.8 455.0 L139.5 430.0 L154.2 405.0 L169.0 380.0 L183.8 355.0 L198.5 330.0 L213.2 305.0 L228.0 280.0 L242.8 255.0 L257.5 230.0 L272.2 205.0 L287.0 180.0 L301.8 180.2 L316.5 180.6 L331.2 181.4 L346.0 182.6 L360.8 184.0 L375.5 185.7 L390.2 187.8 L405.0 190.1 L419.8 192.8 L434.5 195.7 L449.2 199.0 L464.0 202.5 L478.8 206.3 L493.5 210.3 L508.2 214.6 L523.0 219.1 L537.8 223.9 L552.5 228.9 L567.2 234.2 L582.0 239.6 L596.8 245.2 L611.5 251.0 L626.2 257.0 L641.0 263.1 L655.8 269.4 L670.5 275.8 L685.2 282.3 L700.0 289.0 L714.8 295.7 L729.5 302.4 L744.2 309.3 L759.0 316.2 L773.8 323.1 L788.5 330.0 L803.2 336.9 L818.0 343.8 L832.8 350.7 L847.5 357.6 L862.2 364.3 L877.0 371.0 L891.8 377.7 L906.5 384.2 L921.2 390.6 L936.0 396.9 L950.8 403.0 L965.5 409.0 L980.2 414.8 L995.0 420.4 L1009.8 425.8 L1024.5 431.1 L1039.2 436.1 L1054.0 440.9 L1068.8 445.4 L1083.5 449.7 L1098.2 453.7 L1113.0 457.5 L1127.8 461.0 L1142.5 464.3 L1157.2 467.2 L1172.0 469.9 L1186.8 472.2 L1201.5 474.3 L1216.2 476.0 L1231.0 477.4 L1245.8 478.6 L1260.5 479.4 L1275.2 479.8 L1290.0 480.0" fill="none" stroke="#29A7C8" stroke-width="5" stroke-linecap="round" stroke-linejoin="round" />
<line x1="930" y1="130" x2="980" y2="130" class="axis" style="stroke:#081B33;stroke-width:4"/>
<text x="995" y="136" class="s" text-anchor="start">constant</text>
<line x1="930" y1="157" x2="980" y2="157" class="axis" style="stroke:#263F8F;stroke-width:4"/>
<text x="995" y="163" class="s" text-anchor="start">step decay</text>
<line x1="930" y1="184" x2="980" y2="184" class="axis" style="stroke:#3157D5;stroke-width:4"/>
<text x="995" y="190" class="s" text-anchor="start">cosine annealing</text>
<line x1="930" y1="211" x2="980" y2="211" class="axis" style="stroke:#29A7C8;stroke-width:4"/>
<text x="995" y="217" class="s" text-anchor="start">warmup + cosine</text>
<text x="700" y="650" class="s" text-anchor="middle">Schedule shapes are conceptual; no validation-accuracy values are implied.</text>
</svg>