<?xml version="1.0" encoding="UTF-8"?>
<svg xmlns="http://www.w3.org/2000/svg" viewBox="0 0 800 480" width="800" height="480">
  <!-- Title -->
  <text x="400" y="25" text-anchor="middle" font-family="Arial, sans-serif" font-size="18" font-weight="bold" fill="#1F2937">Architectural Styles Comparison</text>
  
  <!-- Header Row -->
  <rect x="30" y="50" width="120" height="40" rx="4" fill="#1F2937"/>
  <text x="90" y="75" text-anchor="middle" font-family="Arial, sans-serif" font-size="11" fill="white" font-weight="bold">Aspect</text>
  
  <rect x="155" y="50" width="120" height="40" rx="4" fill="#3B82F6"/>
  <text x="215" y="75" text-anchor="middle" font-family="Arial, sans-serif" font-size="11" fill="white" font-weight="bold">Layered</text>
  
  <rect x="280" y="50" width="120" height="40" rx="4" fill="#10B981"/>
  <text x="340" y="75" text-anchor="middle" font-family="Arial, sans-serif" font-size="11" fill="white" font-weight="bold">MVC</text>
  
  <rect x="405" y="50" width="120" height="40" rx="4" fill="#F59E0B"/>
  <text x="465" y="75" text-anchor="middle" font-family="Arial, sans-serif" font-size="11" fill="white" font-weight="bold">Microservices</text>
  
  <rect x="530" y="50" width="120" height="40" rx="4" fill="#8B5CF6"/>
  <text x="590" y="75" text-anchor="middle" font-family="Arial, sans-serif" font-size="11" fill="white" font-weight="bold">Event-Driven</text>
  
  <rect x="655" y="50" width="120" height="40" rx="4" fill="#64748B"/>
  <text x="715" y="75" text-anchor="middle" font-family="Arial, sans-serif" font-size="11" fill="white" font-weight="bold">Monolith</text>
  
  <!-- Row 1: Complexity -->
  <rect x="30" y="95" width="120" height="50" rx="0" fill="#F1F5F9"/>
  <text x="90" y="125" text-anchor="middle" font-family="Arial, sans-serif" font-size="10" fill="#374151" font-weight="bold">Complexity</text>
  
  <rect x="155" y="95" width="120" height="50" rx="0" fill="#EFF6FF"/>
  <text x="215" y="125" text-anchor="middle" font-family="Arial, sans-serif" font-size="10" fill="#1E40AF">Low</text>
  
  <rect x="280" y="95" width="120" height="50" rx="0" fill="#ECFDF5"/>
  <text x="340" y="125" text-anchor="middle" font-family="Arial, sans-serif" font-size="10" fill="#065F46">Low-Medium</text>
  
  <rect x="405" y="95" width="120" height="50" rx="0" fill="#FFFBEB"/>
  <text x="465" y="125" text-anchor="middle" font-family="Arial, sans-serif" font-size="10" fill="#92400E">High</text>
  
  <rect x="530" y="95" width="120" height="50" rx="0" fill="#F5F3FF"/>
  <text x="590" y="125" text-anchor="middle" font-family="Arial, sans-serif" font-size="10" fill="#5B21B6">High</text>
  
  <rect x="655" y="95" width="120" height="50" rx="0" fill="#F8FAFC"/>
  <text x="715" y="125" text-anchor="middle" font-family="Arial, sans-serif" font-size="10" fill="#374151">Low</text>
  
  <!-- Row 2: Scalability -->
  <rect x="30" y="150" width="120" height="50" rx="0" fill="#F1F5F9"/>
  <text x="90" y="180" text-anchor="middle" font-family="Arial, sans-serif" font-size="10" fill="#374151" font-weight="bold">Scalability</text>
  
  <rect x="155" y="150" width="120" height="50" rx="0" fill="#EFF6FF"/>
  <text x="215" y="180" text-anchor="middle" font-family="Arial, sans-serif" font-size="10" fill="#1E40AF">Limited</text>
  
  <rect x="280" y="150" width="120" height="50" rx="0" fill="#ECFDF5"/>
  <text x="340" y="180" text-anchor="middle" font-family="Arial, sans-serif" font-size="10" fill="#065F46">Limited</text>
  
  <rect x="405" y="150" width="120" height="50" rx="0" fill="#FFFBEB"/>
  <text x="465" y="180" text-anchor="middle" font-family="Arial, sans-serif" font-size="10" fill="#92400E">Excellent</text>
  
  <rect x="530" y="150" width="120" height="50" rx="0" fill="#F5F3FF"/>
  <text x="590" y="180" text-anchor="middle" font-family="Arial, sans-serif" font-size="10" fill="#5B21B6">Excellent</text>
  
  <rect x="655" y="150" width="120" height="50" rx="0" fill="#F8FAFC"/>
  <text x="715" y="180" text-anchor="middle" font-family="Arial, sans-serif" font-size="10" fill="#374151">Limited</text>
  
  <!-- Row 3: Deployment -->
  <rect x="30" y="205" width="120" height="50" rx="0" fill="#F1F5F9"/>
  <text x="90" y="235" text-anchor="middle" font-family="Arial, sans-serif" font-size="10" fill="#374151" font-weight="bold">Deployment</text>
  
  <rect x="155" y="205" width="120" height="50" rx="0" fill="#EFF6FF"/>
  <text x="215" y="235" text-anchor="middle" font-family="Arial, sans-serif" font-size="10" fill="#1E40AF">Monolithic</text>
  
  <rect x="280" y="205" width="120" height="50" rx="0" fill="#ECFDF5"/>
  <text x="340" y="235" text-anchor="middle" font-family="Arial, sans-serif" font-size="10" fill="#065F46">Monolithic</text>
  
  <rect x="405" y="205" width="120" height="50" rx="0" fill="#FFFBEB"/>
  <text x="465" y="235" text-anchor="middle" font-family="Arial, sans-serif" font-size="10" fill="#92400E">Independent</text>
  
  <rect x="530" y="205" width="120" height="50" rx="0" fill="#F5F3FF"/>
  <text x="590" y="235" text-anchor="middle" font-family="Arial, sans-serif" font-size="10" fill="#5B21B6">Varies</text>
  
  <rect x="655" y="205" width="120" height="50" rx="0" fill="#F8FAFC"/>
  <text x="715" y="235" text-anchor="middle" font-family="Arial, sans-serif" font-size="10" fill="#374151">Single Unit</text>
  
  <!-- Row 4: Data Consistency -->
  <rect x="30" y="260" width="120" height="50" rx="0" fill="#F1F5F9"/>
  <text x="90" y="285" text-anchor="middle" font-family="Arial, sans-serif" font-size="10" fill="#374151" font-weight="bold">Data</text>
  <text x="90" y="300" text-anchor="middle" font-family="Arial, sans-serif" font-size="10" fill="#374151" font-weight="bold">Consistency</text>
  
  <rect x="155" y="260" width="120" height="50" rx="0" fill="#EFF6FF"/>
  <text x="215" y="290" text-anchor="middle" font-family="Arial, sans-serif" font-size="10" fill="#1E40AF">Strong</text>
  
  <rect x="280" y="260" width="120" height="50" rx="0" fill="#ECFDF5"/>
  <text x="340" y="290" text-anchor="middle" font-family="Arial, sans-serif" font-size="10" fill="#065F46">Strong</text>
  
  <rect x="405" y="260" width="120" height="50" rx="0" fill="#FFFBEB"/>
  <text x="465" y="290" text-anchor="middle" font-family="Arial, sans-serif" font-size="10" fill="#92400E">Eventual</text>
  
  <rect x="530" y="260" width="120" height="50" rx="0" fill="#F5F3FF"/>
  <text x="590" y="290" text-anchor="middle" font-family="Arial, sans-serif" font-size="10" fill="#5B21B6">Eventual</text>
  
  <rect x="655" y="260" width="120" height="50" rx="0" fill="#F8FAFC"/>
  <text x="715" y="290" text-anchor="middle" font-family="Arial, sans-serif" font-size="10" fill="#374151">Strong</text>
  
  <!-- Row 5: Best For -->
  <rect x="30" y="315" width="120" height="60" rx="0" fill="#F1F5F9"/>
  <text x="90" y="350" text-anchor="middle" font-family="Arial, sans-serif" font-size="10" fill="#374151" font-weight="bold">Best For</text>
  
  <rect x="155" y="315" width="120" height="60" rx="0" fill="#EFF6FF"/>
  <text x="215" y="340" text-anchor="middle" font-family="Arial, sans-serif" font-size="9" fill="#1E40AF">Traditional</text>
  <text x="215" y="355" text-anchor="middle" font-family="Arial, sans-serif" font-size="9" fill="#1E40AF">enterprise</text>
  <text x="215" y="370" text-anchor="middle" font-family="Arial, sans-serif" font-size="9" fill="#1E40AF">apps</text>
  
  <rect x="280" y="315" width="120" height="60" rx="0" fill="#ECFDF5"/>
  <text x="340" y="340" text-anchor="middle" font-family="Arial, sans-serif" font-size="9" fill="#065F46">Web</text>
  <text x="340" y="355" text-anchor="middle" font-family="Arial, sans-serif" font-size="9" fill="#065F46">applications</text>
  <text x="340" y="370" text-anchor="middle" font-family="Arial, sans-serif" font-size="9" fill="#065F46">with UI</text>
  
  <rect x="405" y="315" width="120" height="60" rx="0" fill="#FFFBEB"/>
  <text x="465" y="340" text-anchor="middle" font-family="Arial, sans-serif" font-size="9" fill="#92400E">Large,</text>
  <text x="465" y="355" text-anchor="middle" font-family="Arial, sans-serif" font-size="9" fill="#92400E">complex</text>
  <text x="465" y="370" text-anchor="middle" font-family="Arial, sans-serif" font-size="9" fill="#92400E">systems</text>
  
  <rect x="530" y="315" width="120" height="60" rx="0" fill="#F5F3FF"/>
  <text x="590" y="340" text-anchor="middle" font-family="Arial, sans-serif" font-size="9" fill="#5B21B6">Reactive,</text>
  <text x="590" y="355" text-anchor="middle" font-family="Arial, sans-serif" font-size="9" fill="#5B21B6">real-time</text>
  <text x="590" y="370" text-anchor="middle" font-family="Arial, sans-serif" font-size="9" fill="#5B21B6">systems</text>
  
  <rect x="655" y="315" width="120" height="60" rx="0" fill="#F8FAFC"/>
  <text x="715" y="340" text-anchor="middle" font-family="Arial, sans-serif" font-size="9" fill="#374151">Small apps,</text>
  <text x="715" y="355" text-anchor="middle" font-family="Arial, sans-serif" font-size="9" fill="#374151">startups,</text>
  <text x="715" y="370" text-anchor="middle" font-family="Arial, sans-serif" font-size="9" fill="#374151">MVPs</text>
  
  <!-- Decision Guide -->
  <rect x="100" y="395" width="600" height="55" rx="8" fill="#F8FAFC" stroke="#E2E8F0" stroke-width="1"/>
  <text x="400" y="415" text-anchor="middle" font-family="Arial, sans-serif" font-size="11" fill="#374151" font-weight="bold">Quick Selection Guide</text>
  <text x="400" y="435" text-anchor="middle" font-family="Arial, sans-serif" font-size="9" fill="#64748B">Start simple (Monolith/Layered) → Add structure (MVC) → Scale up (Microservices) → React in real-time (Event-Driven)</text>
  
  <!-- Caption -->
  <text x="400" y="470" text-anchor="middle" font-family="Arial, sans-serif" font-size="10" fill="#9CA3AF">Figure 4.11: Architectural Styles Comparison - Choosing the Right Architecture</text>
</svg>
