<?xml version="1.0" encoding="UTF-8"?>
<svg xmlns="http://www.w3.org/2000/svg" viewBox="0 0 700 500" width="700" height="500">
  <!-- Title -->
  <text x="350" y="28" text-anchor="middle" font-family="Arial, sans-serif" font-size="18" font-weight="bold" fill="#1F2937">Design System Architecture</text>
  <text x="350" y="48" text-anchor="middle" font-family="Arial, sans-serif" font-size="11" fill="#64748B">Building blocks from tokens to patterns</text>
  
  <!-- Foundation Layer -->
  <rect x="25" y="70" width="650" height="90" rx="8" fill="#F1F5F9" stroke="#94A3B8" stroke-width="2"/>
  <text x="50" y="95" font-family="Arial, sans-serif" font-size="12" font-weight="bold" fill="#475569">Foundation: Design Tokens</text>
  
  <!-- Token boxes -->
  <rect x="45" y="110" width="90" height="40" rx="4" fill="white" stroke="#CBD5E1" stroke-width="1"/>
  <rect x="55" y="120" width="20" height="20" rx="3" fill="#3B82F6"/>
  <text x="80" y="135" font-family="Arial, sans-serif" font-size="8" fill="#374151">Colors</text>
  
  <rect x="145" y="110" width="90" height="40" rx="4" fill="white" stroke="#CBD5E1" stroke-width="1"/>
  <text x="165" y="128" font-family="Georgia, serif" font-size="14" fill="#374151">Aa</text>
  <text x="190" y="135" font-family="Arial, sans-serif" font-size="8" fill="#374151">Typography</text>
  
  <rect x="245" y="110" width="90" height="40" rx="4" fill="white" stroke="#CBD5E1" stroke-width="1"/>
  <text x="265" y="128" font-family="Arial, sans-serif" font-size="10" fill="#64748B">8px</text>
  <text x="290" y="135" font-family="Arial, sans-serif" font-size="8" fill="#374151">Spacing</text>
  
  <rect x="345" y="110" width="90" height="40" rx="4" fill="white" stroke="#CBD5E1" stroke-width="1"/>
  <rect x="355" y="120" width="20" height="20" rx="6" fill="#E2E8F0"/>
  <text x="385" y="135" font-family="Arial, sans-serif" font-size="8" fill="#374151">Radius</text>
  
  <rect x="445" y="110" width="90" height="40" rx="4" fill="white" stroke="#CBD5E1" stroke-width="1"/>
  <rect x="455" y="120" width="20" height="20" rx="2" fill="white" stroke="#CBD5E1" stroke-width="1"/>
  <text x="485" y="135" font-family="Arial, sans-serif" font-size="8" fill="#374151">Shadows</text>
  
  <rect x="545" y="110" width="110" height="40" rx="4" fill="white" stroke="#CBD5E1" stroke-width="1"/>
  <rect x="555" y="123" width="30" height="14" rx="7" fill="#3B82F6"/>
  <text x="595" y="134" font-family="Arial, sans-serif" font-size="8" fill="#374151">Breakpoints</text>
  
  <!-- Arrow down -->
  <path d="M 350 160 L 350 175" stroke="#94A3B8" stroke-width="2" fill="none"/>
  <polygon points="350,180 345,172 355,172" fill="#94A3B8"/>
  
  <!-- Component Layer -->
  <rect x="25" y="185" width="650" height="130" rx="8" fill="#EFF6FF" stroke="#3B82F6" stroke-width="2"/>
  <text x="50" y="210" font-family="Arial, sans-serif" font-size="12" font-weight="bold" fill="#1D4ED8">Components: UI Building Blocks</text>
  
  <!-- Component examples -->
  <!-- Buttons -->
  <rect x="45" y="225" width="100" height="75" rx="4" fill="white" stroke="#DBEAFE" stroke-width="1"/>
  <text x="95" y="242" text-anchor="middle" font-family="Arial, sans-serif" font-size="8" fill="#64748B" font-weight="bold">Buttons</text>
  <rect x="55" y="250" width="80" height="18" rx="4" fill="#3B82F6"/>
  <text x="95" y="262" text-anchor="middle" font-family="Arial, sans-serif" font-size="7" fill="white">Primary</text>
  <rect x="55" y="272" width="80" height="18" rx="4" fill="white" stroke="#3B82F6" stroke-width="1"/>
  <text x="95" y="284" text-anchor="middle" font-family="Arial, sans-serif" font-size="7" fill="#3B82F6">Secondary</text>
  
  <!-- Inputs -->
  <rect x="155" y="225" width="100" height="75" rx="4" fill="white" stroke="#DBEAFE" stroke-width="1"/>
  <text x="205" y="242" text-anchor="middle" font-family="Arial, sans-serif" font-size="8" fill="#64748B" font-weight="bold">Inputs</text>
  <rect x="165" y="255" width="80" height="16" rx="3" fill="white" stroke="#CBD5E1" stroke-width="1"/>
  <text x="172" y="266" font-family="Arial, sans-serif" font-size="7" fill="#94A3B8">Email address</text>
  <rect x="165" y="278" width="80" height="16" rx="3" fill="white" stroke="#CBD5E1" stroke-width="1"/>
  <text x="172" y="289" font-family="Arial, sans-serif" font-size="7" fill="#94A3B8">Password</text>
  
  <!-- Cards -->
  <rect x="265" y="225" width="100" height="75" rx="4" fill="white" stroke="#DBEAFE" stroke-width="1"/>
  <text x="315" y="242" text-anchor="middle" font-family="Arial, sans-serif" font-size="8" fill="#64748B" font-weight="bold">Cards</text>
  <rect x="275" y="250" width="80" height="42" rx="4" fill="white" stroke="#E2E8F0" stroke-width="1"/>
  <rect x="280" y="255" width="70" height="18" rx="2" fill="#F1F5F9"/>
  <rect x="280" y="277" width="40" height="6" rx="1" fill="#E2E8F0"/>
  <rect x="280" y="285" width="55" height="4" rx="1" fill="#E2E8F0"/>
  
  <!-- Navigation -->
  <rect x="375" y="225" width="100" height="75" rx="4" fill="white" stroke="#DBEAFE" stroke-width="1"/>
  <text x="425" y="242" text-anchor="middle" font-family="Arial, sans-serif" font-size="8" fill="#64748B" font-weight="bold">Navigation</text>
  <rect x="385" y="255" width="80" height="35" rx="3" fill="#F8FAFC" stroke="#E2E8F0" stroke-width="1"/>
  <text x="400" y="268" font-family="Arial, sans-serif" font-size="7" fill="#3B82F6">Home</text>
  <text x="430" y="268" font-family="Arial, sans-serif" font-size="7" fill="#64748B">About</text>
  <text x="400" y="282" font-family="Arial, sans-serif" font-size="7" fill="#64748B">Contact</text>
  
  <!-- Badges & Tags -->
  <rect x="485" y="225" width="100" height="75" rx="4" fill="white" stroke="#DBEAFE" stroke-width="1"/>
  <text x="535" y="242" text-anchor="middle" font-family="Arial, sans-serif" font-size="8" fill="#64748B" font-weight="bold">Badges</text>
  <rect x="495" y="255" width="35" height="14" rx="7" fill="#DBEAFE"/>
  <text x="512" y="265" text-anchor="middle" font-family="Arial, sans-serif" font-size="6" fill="#1D4ED8">New</text>
  <rect x="535" y="255" width="40" height="14" rx="7" fill="#D1FAE5"/>
  <text x="555" y="265" text-anchor="middle" font-family="Arial, sans-serif" font-size="6" fill="#065F46">Active</text>
  <rect x="495" y="275" width="45" height="14" rx="7" fill="#FEE2E2"/>
  <text x="517" y="285" text-anchor="middle" font-family="Arial, sans-serif" font-size="6" fill="#B91C1C">Urgent</text>
  
  <!-- Modals -->
  <rect x="595" y="225" width="70" height="75" rx="4" fill="white" stroke="#DBEAFE" stroke-width="1"/>
  <text x="630" y="242" text-anchor="middle" font-family="Arial, sans-serif" font-size="8" fill="#64748B" font-weight="bold">Modals</text>
  <rect x="605" y="255" width="50" height="35" rx="3" fill="white" stroke="#E2E8F0" stroke-width="1"/>
  <rect x="610" y="260" width="40" height="6" rx="1" fill="#374151"/>
  <rect x="610" y="270" width="35" height="3" rx="1" fill="#E2E8F0"/>
  <rect x="610" y="275" width="30" height="3" rx="1" fill="#E2E8F0"/>
  <rect x="632" y="282" width="15" height="6" rx="2" fill="#3B82F6"/>
  
  <!-- Arrow down -->
  <path d="M 350 315 L 350 330" stroke="#3B82F6" stroke-width="2" fill="none"/>
  <polygon points="350,335 345,327 355,327" fill="#3B82F6"/>
  
  <!-- Patterns Layer -->
  <rect x="25" y="340" width="650" height="130" rx="8" fill="#F0FDF4" stroke="#10B981" stroke-width="2"/>
  <text x="50" y="365" font-family="Arial, sans-serif" font-size="12" font-weight="bold" fill="#065F46">Patterns: Reusable Compositions</text>
  
  <!-- Pattern examples -->
  <!-- Login Form -->
  <rect x="45" y="380" width="145" height="75" rx="4" fill="white" stroke="#D1FAE5" stroke-width="1"/>
  <text x="117" y="397" text-anchor="middle" font-family="Arial, sans-serif" font-size="8" fill="#64748B" font-weight="bold">Login Form</text>
  <rect x="55" y="405" width="125" height="12" rx="2" fill="#F1F5F9" stroke="#E2E8F0" stroke-width="1"/>
  <rect x="55" y="420" width="125" height="12" rx="2" fill="#F1F5F9" stroke="#E2E8F0" stroke-width="1"/>
  <rect x="55" y="438" width="60" height="12" rx="3" fill="#3B82F6"/>
  <text x="85" y="447" text-anchor="middle" font-family="Arial, sans-serif" font-size="6" fill="white">Sign In</text>
  
  <!-- Data Table -->
  <rect x="205" y="380" width="145" height="75" rx="4" fill="white" stroke="#D1FAE5" stroke-width="1"/>
  <text x="277" y="397" text-anchor="middle" font-family="Arial, sans-serif" font-size="8" fill="#64748B" font-weight="bold">Data Table</text>
  <rect x="215" y="405" width="125" height="8" rx="1" fill="#E2E8F0"/>
  <rect x="215" y="416" width="125" height="6" rx="1" fill="#F8FAFC" stroke="#E2E8F0" stroke-width="0.5"/>
  <rect x="215" y="424" width="125" height="6" rx="1" fill="white" stroke="#E2E8F0" stroke-width="0.5"/>
  <rect x="215" y="432" width="125" height="6" rx="1" fill="#F8FAFC" stroke="#E2E8F0" stroke-width="0.5"/>
  <rect x="215" y="440" width="125" height="6" rx="1" fill="white" stroke="#E2E8F0" stroke-width="0.5"/>
  
  <!-- Search & Filter -->
  <rect x="365" y="380" width="145" height="75" rx="4" fill="white" stroke="#D1FAE5" stroke-width="1"/>
  <text x="437" y="397" text-anchor="middle" font-family="Arial, sans-serif" font-size="8" fill="#64748B" font-weight="bold">Search &amp; Filter</text>
  <rect x="375" y="408" width="90" height="14" rx="3" fill="#F8FAFC" stroke="#E2E8F0" stroke-width="1"/>
  <text x="382" y="418" font-family="Arial, sans-serif" font-size="7" fill="#94A3B8">🔍 Search...</text>
  <rect x="470" y="408" width="30" height="14" rx="3" fill="#DBEAFE"/>
  <text x="485" y="418" text-anchor="middle" font-family="Arial, sans-serif" font-size="6" fill="#1D4ED8">Filter</text>
  <rect x="375" y="428" width="125" height="20" rx="3" fill="#F8FAFC"/>
  <rect x="380" y="433" width="25" height="10" rx="5" fill="#D1FAE5"/>
  <rect x="410" y="433" width="35" height="10" rx="5" fill="#DBEAFE"/>
  <rect x="450" y="433" width="25" height="10" rx="5" fill="#FEF3C7"/>
  
  <!-- Dashboard Header -->
  <rect x="525" y="380" width="140" height="75" rx="4" fill="white" stroke="#D1FAE5" stroke-width="1"/>
  <text x="595" y="397" text-anchor="middle" font-family="Arial, sans-serif" font-size="8" fill="#64748B" font-weight="bold">Dashboard Header</text>
  <rect x="535" y="408" width="120" height="38" rx="3" fill="#F8FAFC" stroke="#E2E8F0" stroke-width="1"/>
  <rect x="540" y="413" width="40" height="8" rx="1" fill="#374151"/>
  <rect x="540" y="425" width="60" height="4" rx="1" fill="#E2E8F0"/>
  <circle cx="640" cy="420" r="8" fill="#DBEAFE"/>
  <circle cx="640" cy="438" r="6" fill="#E2E8F0"/>
  
  <!-- Caption -->
  <text x="350" y="490" text-anchor="middle" font-family="Arial, sans-serif" font-size="10" fill="#9CA3AF">Figure 5.10: Design System Architecture - From Tokens to Patterns</text>
</svg>
