<?xml version="1.0" encoding="UTF-8"?>
<svg xmlns="http://www.w3.org/2000/svg" viewBox="0 0 750 420" width="750" height="420">
  <!-- Title -->
  <text x="375" y="28" text-anchor="middle" font-family="Arial, sans-serif" font-size="18" font-weight="bold" fill="#1F2937">Kanban Board</text>
  <text x="375" y="48" text-anchor="middle" font-family="Arial, sans-serif" font-size="11" fill="#64748B">Visualizing workflow with WIP limits</text>
  
  <!-- Board background -->
  <rect x="25" y="65" width="700" height="320" rx="8" fill="#F8FAFC" stroke="#E2E8F0" stroke-width="2"/>
  
  <!-- Column headers -->
  <!-- Backlog -->
  <rect x="35" y="75" width="125" height="35" rx="4" fill="#E2E8F0"/>
  <text x="97" y="98" text-anchor="middle" font-family="Arial, sans-serif" font-size="11" font-weight="bold" fill="#374151">Backlog</text>
  
  <!-- To Do -->
  <rect x="170" y="75" width="125" height="35" rx="4" fill="#DBEAFE"/>
  <text x="232" y="93" text-anchor="middle" font-family="Arial, sans-serif" font-size="11" font-weight="bold" fill="#1D4ED8">To Do</text>
  <text x="232" y="105" text-anchor="middle" font-family="Arial, sans-serif" font-size="8" fill="#3B82F6">WIP: 5</text>
  
  <!-- In Progress -->
  <rect x="305" y="75" width="125" height="35" rx="4" fill="#FEF3C7"/>
  <text x="367" y="93" text-anchor="middle" font-family="Arial, sans-serif" font-size="11" font-weight="bold" fill="#92400E">In Progress</text>
  <text x="367" y="105" text-anchor="middle" font-family="Arial, sans-serif" font-size="8" fill="#F59E0B">WIP: 3</text>
  
  <!-- Review -->
  <rect x="440" y="75" width="125" height="35" rx="4" fill="#F5F3FF"/>
  <text x="502" y="93" text-anchor="middle" font-family="Arial, sans-serif" font-size="11" font-weight="bold" fill="#6D28D9">Review</text>
  <text x="502" y="105" text-anchor="middle" font-family="Arial, sans-serif" font-size="8" fill="#8B5CF6">WIP: 2</text>
  
  <!-- Done -->
  <rect x="575" y="75" width="140" height="35" rx="4" fill="#D1FAE5"/>
  <text x="645" y="98" text-anchor="middle" font-family="Arial, sans-serif" font-size="11" font-weight="bold" fill="#065F46">Done</text>
  
  <!-- Column dividers -->
  <line x1="165" y1="115" x2="165" y2="375" stroke="#E2E8F0" stroke-width="1"/>
  <line x1="300" y1="115" x2="300" y2="375" stroke="#E2E8F0" stroke-width="1"/>
  <line x1="435" y1="115" x2="435" y2="375" stroke="#E2E8F0" stroke-width="1"/>
  <line x1="570" y1="115" x2="570" y2="375" stroke="#E2E8F0" stroke-width="1"/>
  
  <!-- Backlog cards -->
  <rect x="45" y="125" width="110" height="50" rx="4" fill="white" stroke="#CBD5E1" stroke-width="1"/>
  <rect x="50" y="130" width="30" height="12" rx="6" fill="#E2E8F0"/>
  <text x="65" y="139" text-anchor="middle" font-family="Arial, sans-serif" font-size="7" fill="#64748B">US-08</text>
  <text x="55" y="158" font-family="Arial, sans-serif" font-size="8" fill="#374151">User profile page</text>
  
  <rect x="45" y="185" width="110" height="50" rx="4" fill="white" stroke="#CBD5E1" stroke-width="1"/>
  <rect x="50" y="190" width="30" height="12" rx="6" fill="#E2E8F0"/>
  <text x="65" y="199" text-anchor="middle" font-family="Arial, sans-serif" font-size="7" fill="#64748B">US-09</text>
  <text x="55" y="218" font-family="Arial, sans-serif" font-size="8" fill="#374151">Search filtering</text>
  
  <rect x="45" y="245" width="110" height="50" rx="4" fill="white" stroke="#CBD5E1" stroke-width="1"/>
  <rect x="50" y="250" width="30" height="12" rx="6" fill="#E2E8F0"/>
  <text x="65" y="259" text-anchor="middle" font-family="Arial, sans-serif" font-size="7" fill="#64748B">US-10</text>
  <text x="55" y="278" font-family="Arial, sans-serif" font-size="8" fill="#374151">Email notifications</text>
  
  <!-- To Do cards -->
  <rect x="180" y="125" width="110" height="55" rx="4" fill="white" stroke="#3B82F6" stroke-width="1"/>
  <rect x="185" y="130" width="30" height="12" rx="6" fill="#DBEAFE"/>
  <text x="200" y="139" text-anchor="middle" font-family="Arial, sans-serif" font-size="7" fill="#1D4ED8">US-05</text>
  <text x="190" y="158" font-family="Arial, sans-serif" font-size="8" fill="#374151">Password reset</text>
  <circle cx="275" cy="168" r="10" fill="#DBEAFE"/>
  <text x="275" y="172" text-anchor="middle" font-family="Arial, sans-serif" font-size="8" fill="#1D4ED8">3</text>
  
  <rect x="180" y="190" width="110" height="55" rx="4" fill="white" stroke="#3B82F6" stroke-width="1"/>
  <rect x="185" y="195" width="30" height="12" rx="6" fill="#DBEAFE"/>
  <text x="200" y="204" text-anchor="middle" font-family="Arial, sans-serif" font-size="7" fill="#1D4ED8">US-06</text>
  <text x="190" y="223" font-family="Arial, sans-serif" font-size="8" fill="#374151">Dashboard charts</text>
  <circle cx="275" cy="233" r="10" fill="#DBEAFE"/>
  <text x="275" y="237" text-anchor="middle" font-family="Arial, sans-serif" font-size="8" fill="#1D4ED8">5</text>
  
  <!-- In Progress cards (at WIP limit) -->
  <rect x="315" y="125" width="110" height="55" rx="4" fill="white" stroke="#F59E0B" stroke-width="2"/>
  <rect x="320" y="130" width="30" height="12" rx="6" fill="#FEF3C7"/>
  <text x="335" y="139" text-anchor="middle" font-family="Arial, sans-serif" font-size="7" fill="#92400E">US-03</text>
  <text x="325" y="158" font-family="Arial, sans-serif" font-size="8" fill="#374151">User authentication</text>
  <circle cx="410" cy="168" r="10" fill="#FEF3C7"/>
  <text x="410" y="172" text-anchor="middle" font-family="Arial, sans-serif" font-size="8" fill="#92400E">8</text>
  <circle cx="325" cy="168" r="8" fill="#E2E8F0"/>
  <text x="325" y="171" text-anchor="middle" font-family="Arial, sans-serif" font-size="7" fill="#64748B">JD</text>
  
  <rect x="315" y="190" width="110" height="55" rx="4" fill="white" stroke="#F59E0B" stroke-width="2"/>
  <rect x="320" y="195" width="30" height="12" rx="6" fill="#FEF3C7"/>
  <text x="335" y="204" text-anchor="middle" font-family="Arial, sans-serif" font-size="7" fill="#92400E">US-04</text>
  <text x="325" y="223" font-family="Arial, sans-serif" font-size="8" fill="#374151">API integration</text>
  <circle cx="410" cy="233" r="10" fill="#FEF3C7"/>
  <text x="410" y="237" text-anchor="middle" font-family="Arial, sans-serif" font-size="8" fill="#92400E">5</text>
  <circle cx="325" cy="233" r="8" fill="#E2E8F0"/>
  <text x="325" y="236" text-anchor="middle" font-family="Arial, sans-serif" font-size="7" fill="#64748B">AS</text>
  
  <rect x="315" y="255" width="110" height="55" rx="4" fill="white" stroke="#F59E0B" stroke-width="2"/>
  <rect x="320" y="260" width="30" height="12" rx="6" fill="#FEF3C7"/>
  <text x="335" y="269" text-anchor="middle" font-family="Arial, sans-serif" font-size="7" fill="#92400E">US-07</text>
  <text x="325" y="288" font-family="Arial, sans-serif" font-size="8" fill="#374151">Data export</text>
  <circle cx="410" cy="298" r="10" fill="#FEF3C7"/>
  <text x="410" y="302" text-anchor="middle" font-family="Arial, sans-serif" font-size="8" fill="#92400E">3</text>
  <circle cx="325" cy="298" r="8" fill="#E2E8F0"/>
  <text x="325" y="301" text-anchor="middle" font-family="Arial, sans-serif" font-size="7" fill="#64748B">MK</text>
  
  <!-- WIP limit warning -->
  <rect x="305" y="320" width="125" height="20" rx="4" fill="#FEE2E2"/>
  <text x="367" y="334" text-anchor="middle" font-family="Arial, sans-serif" font-size="8" fill="#B91C1C">⚠ WIP Limit Reached</text>
  
  <!-- Review cards -->
  <rect x="450" y="125" width="110" height="55" rx="4" fill="white" stroke="#8B5CF6" stroke-width="1"/>
  <rect x="455" y="130" width="30" height="12" rx="6" fill="#F5F3FF"/>
  <text x="470" y="139" text-anchor="middle" font-family="Arial, sans-serif" font-size="7" fill="#6D28D9">US-02</text>
  <text x="460" y="158" font-family="Arial, sans-serif" font-size="8" fill="#374151">Login form UI</text>
  <circle cx="545" cy="168" r="10" fill="#F5F3FF"/>
  <text x="545" y="172" text-anchor="middle" font-family="Arial, sans-serif" font-size="8" fill="#6D28D9">5</text>
  
  <!-- Done cards -->
  <rect x="585" y="125" width="120" height="50" rx="4" fill="white" stroke="#10B981" stroke-width="1"/>
  <rect x="590" y="130" width="30" height="12" rx="6" fill="#D1FAE5"/>
  <text x="605" y="139" text-anchor="middle" font-family="Arial, sans-serif" font-size="7" fill="#065F46">US-01</text>
  <text x="595" y="155" font-family="Arial, sans-serif" font-size="8" fill="#374151">Database setup</text>
  <text x="595" y="168" font-family="Arial, sans-serif" font-size="7" fill="#10B981">✓ Completed</text>
  
  <!-- Flow arrows -->
  <defs>
    <marker id="flowArrow" markerWidth="8" markerHeight="8" refX="4" refY="4" orient="auto">
      <polygon points="0 0, 8 4, 0 8" fill="#94A3B8"/>
    </marker>
  </defs>
  
  <!-- Legend -->
  <rect x="25" y="385" width="700" height="25" rx="4" fill="#F1F5F9"/>
  <circle cx="55" cy="397" r="8" fill="#DBEAFE"/>
  <text x="55" y="401" text-anchor="middle" font-family="Arial, sans-serif" font-size="8" fill="#1D4ED8">5</text>
  <text x="80" y="401" font-family="Arial, sans-serif" font-size="8" fill="#64748B">Story Points</text>
  
  <circle cx="175" cy="397" r="8" fill="#E2E8F0"/>
  <text x="175" y="401" text-anchor="middle" font-family="Arial, sans-serif" font-size="7" fill="#64748B">JD</text>
  <text x="200" y="401" font-family="Arial, sans-serif" font-size="8" fill="#64748B">Assignee</text>
  
  <rect x="280" y="390" width="40" height="14" rx="7" fill="#FEF3C7"/>
  <text x="300" y="400" text-anchor="middle" font-family="Arial, sans-serif" font-size="7" fill="#92400E">US-01</text>
  <text x="340" y="401" font-family="Arial, sans-serif" font-size="8" fill="#64748B">Story ID</text>
  
  <text x="450" y="401" font-family="Arial, sans-serif" font-size="8" fill="#64748B">WIP = Work In Progress Limit</text>
  
  <!-- Caption -->
  <text x="375" y="415" text-anchor="middle" font-family="Arial, sans-serif" font-size="10" fill="#9CA3AF">Figure 6.3: Kanban Board - Visualizing Workflow with WIP Limits</text>
</svg>
